<?xml version="1.0" encoding="UTF-8"?>
<svg width="246px" height="28px" viewBox="0 0 246 28" version="1.1" xmlns="http://www.w3.org/2000/svg" xmlns:xlink="http://www.w3.org/1999/xlink">
    <!-- Generator: Sketch 55.2 (78181) - https://sketchapp.com -->
    <title>powerside-logo-full-colour-rgb</title>
    <desc>Created with Sketch.</desc>
    <g id="Dashboard---NEW" stroke="none" stroke-width="1" fill="none" fill-rule="evenodd">
        <g id="Dashboard" transform="translate(-20.000000, -18.000000)" fill-rule="nonzero">
            <g id="Header">
                <g id="powerside-logo-full-colour-rgb" transform="translate(20.000000, 18.000000)">
                    <path d="M0,3 L8.56806086,3 C13.6884294,3 17,6.71285693 17,11.0495891 C17,15.3872178 13.6884294,19.1001046 8.56806086,19.1001046 L3.92545342,19.1001046 L3.92545342,26 L0,26 L0,3 Z M13.0745466,11.0495891 C13.0745466,8.51983861 11.2990649,6.38398877 8.56806086,6.38398877 L3.92545342,6.38398877 L3.92545342,15.7151894 L8.56806086,15.7151894 C11.2989717,15.7151894 13.0745466,13.5798177 13.0745466,11.0495891 Z" id="type_CompoundPathItem_" fill="#202F44"></path>
                    <polygon id="type_CompoundPathItem_2" fill="#202F44" points="72.5159245 9.60402165 67.3548944 26 64.7104497 26 57 3 60.8552248 3 65.9846668 19.3955898 71.1459867 3 73.8539843 3 79.0153042 19.3955898 84.1452388 3 88 3 80.2903038 26 77.6458301 26"></polygon>
                    <polygon id="type_CompoundPathItem_3" fill="#202F44" points="103.131005 6.38398877 103.131005 12.8899836 111 12.8899836 111 16.2740022 103.131005 16.2740022 103.131005 22.6155629 111 22.6155629 111 26 100 26 100 3 111 3 111 6.38398877"></polygon>
                    <path d="M123,3 L131.568496,3 C136.688895,3 140,6.71285693 140,11.0495891 C140,14.3355809 138.088428,17.2597101 134.94822,18.5083272 L139.692608,26 L135.221457,26 L130.851838,19.1001046 L126.925919,19.1001046 L126.925919,26 L123,26 L123,3 Z M136.074516,11.0495891 C136.074516,8.51983861 134.299065,6.38398877 131.568496,6.38398877 L126.925919,6.38398877 L126.925919,15.7151894 L131.568496,15.7151894 C134.299065,15.7151894 136.074516,13.5798177 136.074516,11.0495891 Z" id="type_CompoundPathItem_4" fill="#202F44"></path>
                    <path d="M154.586104,18.956241 C154.586104,21.9318013 156.36374,23.6320068 158.827366,23.6320068 C160.823217,23.6320068 162.413896,22.2914299 162.413896,20.2316256 C162.413896,17.9101598 160.448906,17.1580686 158.952146,16.602417 C154.960415,15.131039 151.748196,13.8556841 151.748196,9.2779448 C151.748196,5.48510098 154.866951,3 158.515658,3 C162.445211,3 165.470076,5.90992186 165.470076,10.160837 L161.883547,10.160837 C161.883547,7.90456351 160.636289,6.36757682 158.609122,6.36757682 C156.831515,6.36757682 155.334726,7.34846573 155.334726,9.2779448 C155.334726,11.1417557 156.893692,12.0242315 158.515658,12.645938 C161.914834,13.9208765 166,15.4250588 166,19.806775 C166,24.5147801 162.569537,27 158.515658,27 C154.554817,27 151,24.089632 151,18.956241 L154.586104,18.956241 Z" id="type_CompoundPathItem_5" fill="#202F44"></path>
                    <polygon id="type_CompoundPathItem_6" fill="#202F44" points="177 3 181 3 181 26 177 26"></polygon>
                    <path d="M200.925442,3 C208.003117,3 212,8.68436235 212,14.4995666 C212,20.3157273 208.003117,26 200.925442,26 L194,26 L194,3 L200.925442,3 Z M197.50866,6.38398877 L197.50866,22.6155629 L200.925442,22.6155629 C205.68485,22.6155629 208.399906,18.6072507 208.399906,14.4995666 C208.399906,10.3927493 205.68485,6.38398877 200.925442,6.38398877 L197.50866,6.38398877 Z" id="type_CompoundPathItem_7" fill="#202F44"></path>
                    <polygon id="type_CompoundPathItem_8" fill="#202F44" points="225.131111 6.38398877 225.131111 12.8899836 233 12.8899836 233 16.2740022 225.131111 16.2740022 225.131111 22.6155629 233 22.6155629 233 26 222 26 222 3 233 3 233 6.38398877"></polygon>
                    <path d="M243.415514,2 L243.415514,2.43524826 L242.879256,2.43524826 L242.879256,5 L242.530829,5 L242.530829,2.43524826 L242,2.43524826 L242,2 L243.415514,2 Z M243.769341,2 L244.343172,2 L244.884685,4.16702145 L245.426344,2 L246,2 L246,5 L245.651573,5 L245.651573,2.53802352 L245.040171,5 L244.729142,5 L244.117914,2.53802352 L244.117914,5 L243.769312,5 L243.769341,2 Z" id="type_CompoundPathItem_9" fill="#202F44"></path>
                    <g id="type_GroupItem_" transform="translate(24.000000, 0.000000)">
                        <path d="M10.0098643,14.544303 L9.98966939,14.5869253 C9.53410499,15.5490775 8.58345614,16.1598207 7.54134796,16.1598465 L5.14440918,16.1598465 C4.10233243,16.1598279 3.15169928,16.7705487 2.69617041,17.7326828 L2.67600306,17.7752768 C2.34043547,18.4838741 1.72905654,19.0141149 0.992442857,19.2354061 C1.16693879,19.6822403 1.36421032,20.1193425 1.5834398,20.544901 C2.08706808,20.0617904 2.75054141,19.7929099 3.43982755,19.7925778 L5.83676633,19.7925778 C6.87883686,19.7926016 7.8294684,19.1818928 8.2850051,18.2197697 L8.3050898,18.1773455 C8.76065854,17.215184 9.71132065,16.6044391 10.7534388,16.6044242 L26.7021735,16.6044242 C26.8517775,15.7757648 26.9274887,14.9348309 26.9283673,14.0920606 C26.9283673,13.7143717 26.90955,13.3414909 26.8805388,12.9714667 L12.4581031,12.9714667 C11.4160263,12.9714667 10.4653932,13.5821689 10.0098643,14.544303 Z" id="logoMark_PathItem_" fill="#00B4FF"></path>
                        <path d="M15.6469959,0.464234343 C11.0607116,-0.306919841 6.41183314,1.40930428 3.35436429,5.00229899 L6.13227857,5.00229899 L6.13227857,4.99474747 C7.12781379,4.94801262 8.01882003,4.34634653 8.45482959,3.42640808 L8.47499694,3.38398384 C8.93051188,2.42176899 9.88120452,1.81099351 10.9233459,1.81103434 L13.3200643,1.81103434 C14.2717675,1.8107302 15.1541558,1.30001447 15.6469959,0.464234343 Z" id="logoMark_PathItem_2" fill="#65E4FF"></path>
                        <path d="M14.9457122,2.60114343 L14.9255449,2.64356768 C14.4699762,3.60572912 13.519314,4.21647399 12.4771959,4.21648889 L10.0802571,4.21648889 C9.03815551,4.21649137 8.08751593,4.82726025 7.63201837,5.78943838 L7.61182347,5.83186263 C7.15626418,6.7940196 6.20561212,7.40476489 5.16350204,7.40478384 L1.70681327,7.40478384 C1.09125663,8.54485017 0.637139664,9.76916691 0.358163265,11.040796 L3.02650714,11.040796 L3.02650714,11.0379677 L3.45905816,11.0379677 C4.50113842,11.0379163 5.45175068,10.4271759 5.90729694,9.46504646 L5.92749184,9.42262222 C6.38299723,8.46045509 7.3336352,7.84969823 8.37573061,7.84970101 L10.7800255,7.84970101 C11.818276,7.84969671 12.766114,7.24341397 13.2236357,6.28665051 L13.2533908,6.22442828 C13.7108872,5.26764138 14.6587411,4.66134847 15.697001,4.66137778 L23.2983276,4.66137778 C21.7943709,3.00969762 19.9185325,1.76215888 17.835401,1.02822222 L17.3939786,1.02822222 C16.3518732,1.02822222 15.401222,1.63896712 14.9457122,2.60114343 Z" id="logoMark_PathItem_3" fill="#65E4FF"></path>
                        <path d="M24.9817776,6.93299798 L15.0153061,6.93299798 C13.9732107,6.93299798 13.0225727,7.54375206 12.5670673,8.50591919 L12.5469,8.54834343 C12.0913537,9.51051426 11.1406675,10.1212417 10.098551,10.1211798 L7.6922449,10.1211798 C6.65012109,10.1211744 5.69944934,10.7319254 5.24389592,11.694101 L5.22372857,11.7365253 C4.76822318,12.6986924 3.81758521,13.3094492 2.7754898,13.3094465 L0.0473326531,13.3094465 C0.0332540816,13.5685455 0.0245203818,13.8292283 0.0245203818,14.0918909 C0.0245203818,15.0497418 0.121131873,16.0050185 0.312979592,16.942404 L1.05481837,16.942404 C2.10519175,16.942404 3.06183791,16.3219956 3.51303061,15.3482707 C3.9642038,14.3745035 4.92086821,13.7540873 5.97127041,13.7540525 L8.39391429,13.7540525 C9.43594749,13.7541079 10.3865694,13.1434712 10.8421531,12.1814141 L10.862348,12.1387919 C11.3178768,11.1766578 12.26851,10.565937 13.3105867,10.5659556 L26.4841347,10.5659556 C26.1564253,9.28700459 25.6504112,8.06337553 24.9817776,6.93299798 Z" id="logoMark_PathItem_4" fill="#00B4FF"></path>
                        <path d="M26.0469827,19.0099636 L9.91054286,19.0099636 C8.86842474,19.0099636 7.91776262,19.6207234 7.46219388,20.5828848 L7.44210918,20.6253091 C6.98654044,21.5874705 6.03587833,22.1982154 4.9937602,22.1982303 L2.59682143,22.1982303 L2.58896939,22.1985131 C3.33611157,23.2537513 4.22439472,24.1956303 5.22761327,24.9963636 C5.43552033,24.7804245 5.60768359,24.5310831 5.73730714,24.2581818 L5.75739184,24.2157576 C6.21295624,23.2536053 7.16360508,22.6428621 8.20571327,22.6428364 L24.0348765,22.6428364 C24.8815217,21.5438835 25.5600182,20.318853 26.0469827,19.0099636 L26.0469827,19.0099636 Z" id="logoMark_PathItem_5" fill="#0087FF"></path>
                        <path d="M5.88922347,25.4946505 C10.6876966,28.8609705 17.0500297,28.6809732 21.6606122,25.0484606 L7.3629551,25.0484606 C6.84013801,25.0486309 6.32845679,25.2035486 5.88922347,25.4946505 Z" id="logoMark_PathItem_6" fill="#0050BF"></path>
                    </g>
                </g>
            </g>
        </g>
    </g>
</svg>