<?xml version="1.0" encoding="UTF-8"?>
<svg width="584px" height="67px" viewBox="0 0 584 67" version="1.1" xmlns="http://www.w3.org/2000/svg" xmlns:xlink="http://www.w3.org/1999/xlink">
    <!-- Generator: Sketch 55.2 (78181) - https://sketchapp.com -->
    <title>powerside-logo-full-colour-rgb</title>
    <desc>Created with Sketch.</desc>
    <g id="Dashboard---NEW" stroke="none" stroke-width="1" fill="none" fill-rule="evenodd">
        <g id="Login" transform="translate(-428.000000, -164.000000)" fill="#FFFFFF" fill-rule="nonzero">
            <g id="powerside-logo-full-colour-rgb" transform="translate(428.000000, 164.000000)">
                <path d="M0,7 L18.6481325,7 C29.7924641,7 37,15.5557138 37,25.5490531 C37,35.5444584 29.7924641,44.100241 18.6481325,44.100241 L8.54363391,44.100241 L8.54363391,60 L0,60 L0,7 Z M28.4563661,25.5490531 C28.4563661,19.7196281 24.5920823,14.7978872 18.6481325,14.7978872 L8.54363391,14.7978872 L8.54363391,36.3002189 L18.6481325,36.3002189 C24.5918796,36.3002189 28.4563661,31.3795799 28.4563661,25.5490531 Z" id="type_CompoundPathItem_"></path>
                <polygon id="type_CompoundPathItem_2" points="175.5375 22.2179629 163.384106 60 157.156865 60 139 7 148.078433 7 160.157441 44.7811418 172.311517 7 178.688415 7 190.842491 44.7811418 202.922659 7 212 7 193.844909 60 187.6176 60"></polygon>
                <polygon id="type_CompoundPathItem_3" points="244.539105 14.7978872 244.539105 29.7899621 266 29.7899621 266 37.5879182 244.539105 37.5879182 244.539105 52.2010798 266 52.2010798 266 60 236 60 236 7 266 7 266 14.7978872"></polygon>
                <path d="M294,7 L312.649079,7 C323.793478,7 331,15.5557138 331,25.5490531 C331,33.1211211 326.839519,39.859332 320.00495,42.7365801 L330.330971,60 L320.599642,60 L311.089295,44.100241 L302.544648,44.100241 L302.544648,60 L294,60 L294,7 Z M322.456299,25.5490531 C322.456299,19.7196281 318.592082,14.7978872 312.649079,14.7978872 L302.544648,14.7978872 L302.544648,36.3002189 L312.649079,36.3002189 C318.592082,36.3002189 322.456299,31.3795799 322.456299,25.5490531 Z" id="type_CompoundPathItem_4"></path>
                <path d="M365.60665,43.2312291 C365.60665,50.1742031 369.872976,54.1413492 375.785678,54.1413492 C380.575721,54.1413492 384.39335,51.0133364 384.39335,46.2071264 C384.39335,40.7903728 379.677375,39.0354934 376.085149,37.7389729 C366.504996,34.3057576 358.79567,31.3299296 358.79567,20.6485379 C358.79567,11.798569 366.280682,6 375.037579,6 C384.468507,6 391.728183,12.7898177 391.728183,22.7086197 L383.120512,22.7086197 C383.120512,17.4439815 380.127092,13.8576793 375.261893,13.8576793 C370.995635,13.8576793 367.403342,16.14642 367.403342,20.6485379 C367.403342,24.9974299 371.144861,27.0565402 375.037579,28.5071887 C383.195601,31.4820451 393,34.9918039 393,45.2158083 C393,56.2011535 384.766889,62 375.037579,62 C365.531561,62 357,55.2091414 357,43.2312291 L365.60665,43.2312291 Z" id="type_CompoundPathItem_5"></path>
                <polygon id="type_CompoundPathItem_6" points="420 7 429 7 429 60 420 60"></polygon>
                <path d="M475.928858,7 C493.229842,7 503,20.098748 503,33.4990014 C503,46.9014586 493.229842,60 475.928858,60 L459,60 L459,7 L475.928858,7 Z M467.576725,14.7978872 L467.576725,52.2010798 L475.928858,52.2010798 C487.562967,52.2010798 494.199769,42.9645341 494.199769,33.4990014 C494.199769,24.0354659 487.562967,14.7978872 475.928858,14.7978872 L467.576725,14.7978872 Z" id="type_CompoundPathItem_7"></path>
                <polygon id="type_CompoundPathItem_8" points="536.539393 14.7978872 536.539393 29.7899621 558 29.7899621 558 37.5879182 536.539393 37.5879182 536.539393 52.2010798 558 52.2010798 558 60 528 60 528 7 558 7 558 14.7978872"></polygon>
                <path d="M576.892663,10 L576.892663,10.580331 L575.417953,10.580331 L575.417953,14 L574.459778,14 L574.459778,10.580331 L573,10.580331 L573,10 L576.892663,10 Z M577.865689,10 L579.443722,10 L580.932884,12.8893619 L582.422446,10 L584,10 L584,14 L583.041826,14 L583.041826,10.7173647 L581.36047,14 L580.505139,14 L578.824262,10.7173647 L578.824262,14 L577.865609,14 L577.865689,10 Z" id="type_CompoundPathItem_9"></path>
                <g id="type_GroupItem_" transform="translate(56.000000, 0.000000)">
                    <path d="M24.0978214,34.8024394 L24.0492041,34.9044283 C22.952475,37.2067212 20.6638759,38.6681425 18.1550969,38.668204 L12.3846888,38.668204 C9.87598549,38.6681596 7.5874242,40.1295273 6.49078061,42.4317768 L6.44222959,42.533698 C5.6343817,44.2292702 4.16254353,45.4980607 2.38921429,46.0275788 C2.80929708,47.0967893 3.28421002,48.1427125 3.81198469,49.1610131 C5.02442315,48.0049985 6.62167376,47.3616059 8.28106633,47.3608111 L14.0514745,47.3608111 C16.5601628,47.3608681 18.8487202,45.8995292 19.9453827,43.5973061 L19.9937347,43.4957909 C21.0904743,41.193476 23.3791053,39.7320508 25.8879082,39.7320152 L64.2830102,39.7320152 C64.643168,37.7491514 64.8254357,35.7369169 64.827551,33.7202879 C64.827551,32.8165323 64.78225,31.9242818 64.7124082,31.0388667 L29.9917296,31.0388667 C27.4830263,31.0388667 25.194465,32.5001899 24.0978214,34.8024394 Z" id="logoMark_PathItem_"></path>
                    <path d="M37.6686939,1.11084646 C26.627639,-0.734415334 15.4358946,3.37226381 8.07532143,11.9697869 L14.7628929,11.9697869 L14.7628929,11.9517172 C17.1595517,11.8398873 19.3045667,10.4001863 20.3542194,8.19890505 L20.4027704,8.0973899 C21.4993805,5.79494721 23.788085,4.33344876 26.2969439,4.33354646 L32.0668214,4.33354646 C34.3579588,4.3328187 36.482227,3.11074891 37.6686939,1.11084646 Z" id="logoMark_PathItem_2"></path>
                    <path d="M35.9804184,6.22416465 L35.9318673,6.3256798 C34.8351278,8.62799467 32.5464968,10.0894199 30.0376939,10.0894556 L24.2672857,10.0894556 C21.7585225,10.0894615 19.4699458,11.5509442 18.3733776,13.853299 L18.3247602,13.9548141 C17.2280434,16.2571183 14.9394366,17.7185446 12.4306531,17.7185899 L4.1089949,17.7185899 C2.62709929,20.4466058 1.53385475,23.3762208 0.862244898,26.4190475 L7.28603571,26.4190475 L7.28603571,26.4122798 L8.32736224,26.4122798 C10.836074,26.4121567 13.124585,24.9507423 14.2212704,22.648504 L14.2698878,22.5469889 C15.3664748,20.2446604 17.6550477,18.7832065 20.1637959,18.7832131 L25.9519133,18.7832131 C28.4514053,18.7832028 30.7332375,17.3324549 31.8346786,15.0430566 L31.9063112,14.8941677 C33.0076915,12.6047133 35.289562,11.153941 37.7890765,11.1540111 L56.0885663,11.1540111 C52.4679298,7.20177646 47.9520227,4.21659446 42.9370765,2.46038889 L41.8743929,2.46038889 C39.3656207,2.46038889 37.0770159,3.92181419 35.9804184,6.22416465 Z" id="logoMark_PathItem_3"></path>
                    <path d="M60.1413163,16.5896737 L36.1479592,16.5896737 C33.639211,16.5896737 31.3506381,18.051121 30.254051,20.3534495 L30.2055,20.4549646 C29.1088146,22.757302 26.8201255,24.2186854 24.3113265,24.2185374 L18.5183673,24.2185374 C16.0095508,24.2185244 13.7208966,25.6799644 12.6241939,27.9823131 L12.5756429,28.0838283 C11.4790558,30.3861568 9.19048292,31.8476107 6.68173469,31.847604 L0.11394898,31.847604 C0.0800561224,32.4675909 0.0590305489,33.0913677 0.0590305489,33.7198818 C0.0590305489,36.0118822 0.291613769,38.2977229 0.753469388,40.5407525 L2.53937755,40.5407525 C5.06805422,40.5407525 7.37109126,39.0562038 8.45729592,36.7262192 C9.5434536,34.3961334 11.8465346,32.9115661 14.3752806,32.9114828 L20.2075714,32.9114828 C22.7161699,32.9116154 25.0047041,31.450449 26.1014796,29.1483838 L26.1500969,29.0463949 C27.2467405,26.7441455 29.5353018,25.2827778 32.0440051,25.2828222 L63.758102,25.2828222 C62.9691721,22.2224753 61.75099,19.2945057 60.1413163,16.5896737 Z" id="logoMark_PathItem_4"></path>
                    <path d="M62.705699,45.4881273 L23.8587143,45.4881273 C21.3499114,45.4881273 19.0612804,46.9495882 17.9645408,49.251903 L17.9161888,49.3534182 C16.8194492,51.6557331 14.5308182,53.1171583 12.0220153,53.1171939 L6.25160714,53.1171939 L6.23270408,53.1178707 C8.03137971,55.6429048 10.1698391,57.8966869 12.5849949,59.8127273 C13.0855119,59.2960158 13.499979,58.6993775 13.8120357,58.0463636 L13.8603878,57.9448485 C14.9571169,55.6425556 17.2457159,54.1811343 19.7544949,54.1810727 L57.8617398,54.1810727 C59.8999595,51.5514356 61.533377,48.6201125 62.705699,45.4881273 L62.705699,45.4881273 Z" id="logoMark_PathItem_5"></path>
                    <path d="M14.1777602,61.0050566 C25.72964,69.0601795 41.0463678,68.6294715 52.1459184,59.9373879 L17.7256327,59.9373879 C16.4669989,59.9377955 15.2351738,60.3084912 14.1777602,61.0050566 Z" id="logoMark_PathItem_6"></path>
                </g>
            </g>
        </g>
    </g>
</svg>